<svg xmlns="http://www.w3.org/2000/svg" viewBox="0 0 400 300" width="100%" height="100%">
  <!-- Background -->
  <rect width="400" height="300" fill="#f9fafb"/>
  
  <!-- Tooth Icon -->
  <path d="M200,50 C230,50 250,70 250,100 C250,130 240,150 230,180 C225,195 220,220 210,240 C205,250 195,250 190,240 C180,220 175,195 170,180 C160,150 150,130 150,100 C150,70 170,50 200,50 Z" fill="#ffffff" stroke="#00a0e3" stroke-width="8"/>
  
  <!-- Dental Mirror -->
  <circle cx="280" cy="180" r="30" fill="#f3f4f6" stroke="#1e3a8a" stroke-width="3"/>
  <rect x="275" y="180" width="80" height="10" rx="5" transform="rotate(-45 280 180)" fill="#1e3a8a"/>
  
  <!-- Decorative Elements -->
  <circle cx="150" cy="220" r="15" fill="#10b981" opacity="0.5"/>
  <circle cx="120" cy="180" r="10" fill="#00a0e3" opacity="0.5"/>
  <circle cx="280" cy="80" r="12" fill="#00a0e3" opacity="0.5"/>
  <circle cx="320" cy="120" r="8" fill="#10b981" opacity="0.5"/>
</svg>