<svg xmlns="http://www.w3.org/2000/svg" viewBox="0 0 1200 600" width="100%" height="100%">
  <!-- Background Gradient -->
  <defs>
    <linearGradient id="heroGradient" x1="0%" y1="0%" x2="100%" y2="100%">
      <stop offset="0%" stop-color="#1e3a8a"/>
      <stop offset="100%" stop-color="#00a0e3"/>
    </linearGradient>
  </defs>
  
  <!-- Background -->
  <rect width="1200" height="600" fill="url(#heroGradient)"/>
  
  <!-- Abstract Dental Elements -->
  <circle cx="200" cy="150" r="80" fill="#ffffff" opacity="0.1"/>
  <circle cx="1000" cy="450" r="100" fill="#ffffff" opacity="0.1"/>
  <circle cx="600" cy="100" r="50" fill="#ffffff" opacity="0.1"/>
  <circle cx="900" cy="200" r="70" fill="#ffffff" opacity="0.1"/>
  <circle cx="300" cy="500" r="90" fill="#ffffff" opacity="0.1"/>
  
  <!-- Tooth Silhouettes -->
  <path d="M100,300 C130,300 150,320 150,350 C150,380 140,400 130,430 C125,445 120,470 110,490 C105,500 95,500 90,490 C80,470 75,445 70,430 C60,400 50,380 50,350 C50,320 70,300 100,300 Z" fill="#ffffff" opacity="0.2"/>
  
  <path d="M1100,200 C1130,200 1150,220 1150,250 C1150,280 1140,300 1130,330 C1125,345 1120,370 1110,390 C1105,400 1095,400 1090,390 C1080,370 1075,345 1070,330 C1060,300 1050,280 1050,250 C1050,220 1070,200 1100,200 Z" fill="#ffffff" opacity="0.2"/>
</svg>