<svg xmlns="http://www.w3.org/2000/svg" viewBox="0 0 800 400" width="100%" height="100%">
  <!-- Map Background -->
  <rect width="800" height="400" fill="#e5e7eb"/>
  
  <!-- Roads -->
  <rect x="100" y="150" width="600" height="30" fill="#ffffff"/>
  <rect x="300" y="50" width="30" height="300" fill="#ffffff"/>
  
  <!-- Buildings -->
  <rect x="150" y="50" width="100" height="80" fill="#d1d5db"/>
  <rect x="400" y="50" width="120" height="80" fill="#d1d5db"/>
  <rect x="600" y="50" width="80" height="60" fill="#d1d5db"/>
  
  <rect x="150" y="200" width="80" height="100" fill="#d1d5db"/>
  <rect x="400" y="200" width="100" height="120" fill="#d1d5db"/>
  <rect x="600" y="200" width="120" height="80" fill="#d1d5db"/>
  
  <!-- Dental Clinic Location -->
  <rect x="350" y="200" width="30" height="30" fill="#00a0e3"/>
  <circle cx="365" cy="215" r="10" fill="#1e3a8a"/>
  
  <!-- Location Pin -->
  <path d="M365,215 L365,195 L355,205 Z" fill="#ef4444"/>
  <circle cx="365" cy="195" r="8" fill="#ef4444"/>
  <circle cx="365" cy="195" r="3" fill="#ffffff"/>
  
  <!-- Text Labels -->
  <text x="365" y="240" font-family="Arial" font-size="12" text-anchor="middle" fill="#1e3a8a">SmileBright Dental</text>
  <text x="200" y="100" font-family="Arial" font-size="10" text-anchor="middle" fill="#6b7280">City Hall</text>
  <text x="460" y="100" font-family="Arial" font-size="10" text-anchor="middle" fill="#6b7280">Shopping Center</text>
  <text x="640" y="80" font-family="Arial" font-size="10" text-anchor="middle" fill="#6b7280">Park</text>
  <text x="190" y="250" font-family="Arial" font-size="10" text-anchor="middle" fill="#6b7280">Library</text>
  <text x="450" y="260" font-family="Arial" font-size="10" text-anchor="middle" fill="#6b7280">Pharmacy</text>
  <text x="660" y="240" font-family="Arial" font-size="10" text-anchor="middle" fill="#6b7280">Restaurant</text>
  
  <!-- Street Names -->
  <text x="400" y="170" font-family="Arial" font-size="10" text-anchor="middle" fill="#6b7280">Main Street</text>
  <text x="325" y="200" font-family="Arial" font-size="10" text-anchor="middle" fill="#6b7280" transform="rotate(-90 325,200)">Dental Avenue</text>
</svg>